#!OML:ASF H:\Dans Jumps\Project 1\Capture day 1\Session 1\subject.ASF
:FULLY-SPECIFIED
:DEGREES
175
root 0.520531 17.5436 -13.8545 5.81358 -1.01376 -1.66961
lowerback -0.816707 -0.264571 0.692489
upperback 4.06129 -0.444953 1.6872
thorax 4.65381 -0.231216 1.33285
lowerneck -15.971 0.65515 -2.21809
upperneck 26.447 1.56979 -0.0223403
head 11.2001 0.482384 0.591886
rclavicle 1.98785e-015 -2.10712e-014
rhumerus -18.5295 -10.4281 -84.8106
rradius 24.2602
rwrist 32.1818
rhand -19.424 -26.2903
rfingers 7.12502
rthumb 6.89583 -56.158
lclavicle 1.98785e-015 -2.10712e-014
lhumerus -17.1838 -7.89033 91.252
lradius 19.559
lwrist 4.02756
lhand -24.9372 -4.22226
lfingers 7.12502
lthumb 1.57221 25.7517
rfemur -11.3997 -3.51693 20.0682
rtibia 20.2772
rfoot -13.9831 -1.92069
rtoes 7.06867
lfemur -10.4999 8.36729 -18.4748
ltibia 17.7598
lfoot -11.9011 1.62746
ltoes -7.97927
176
root 0.520622 17.5434 -13.8568 5.81891 -1.00164 -1.66912
lowerback -0.787108 -0.264648 0.698054
upperback 4.06621 -0.444844 1.68851
thorax 4.64207 -0.230983 1.33119
lowerneck -15.9483 0.65317 -2.20715
upperneck 26.4213 1.56457 -0.0285395
head 11.186 0.480761 0.586723
rclavicle 1.39149e-015 -2.0276e-014
rhumerus -18.5255 -10.4258 -84.8085
rradius 24.271
rwrist 32.1676
rhand -19.4286 -26.2833
rfingers 7.12502
rthumb 6.89145 -56.1511
lclavicle 1.39149e-015 -2.0276e-014
lhumerus -17.186 -7.89882 91.2581
lradius 19.5772
lwrist 4.04265
lhand -24.9195 -4.20911
lfingers 7.12502
lthumb 1.58936 25.7647
rfemur -11.4218 -3.50903 20.0691
rtibia 20.2945
rfoot -13.9834 -1.93807
rtoes 7.0862
lfemur -10.529 8.35203 -18.4766
ltibia 17.7852
lfoot -11.9027 1.62747
ltoes -7.96704
177
root 0.520695 17.5431 -13.8594 5.82593 -0.990389 -1.67088
lowerback -0.754435 -0.264482 0.705006
upperback 4.07011 -0.444408 1.69063
thorax 4.6275 -0.23055 1.3296
lowerneck -15.9314 0.651807 -2.19704
upperneck 26.4002 1.56018 -0.0329237
head 11.1749 0.479583 0.58255
rclavicle 4.47266e-015 7.95139e-016
rhumerus -18.5204 -10.4238 -84.8058
rradius 24.2804
rwrist 32.159
rhand -19.4317 -26.2765
rfingers 7.12502
rthumb 6.88841 -56.1444
lclavicle 4.47266e-015 7.95139e-016
lhumerus -17.1905 -7.9146 91.2658
lradius 19.5986
lwrist 4.06641
lhand -24.9053 -4.20178
lfingers 7.12502
lthumb 1.60303 25.7719
rfemur -11.4468 -3.49893 20.0725
rtibia 20.3121
rfoot -13.983 -1.95508
rtoes 7.11251
lfemur -10.5623 8.33662 -18.4764
ltibia 17.8137
lfoot -11.9044 1.62902
ltoes -7.95243
178
root 0.520736 17.5429 -13.8621 5.83479 -0.981069 -1.67336
lowerback -0.719211 -0.264634 0.710676
upperback 4.07273 -0.444327 1.69389
thorax 4.61019 -0.230364 1.3299
lowerneck -15.9204 0.649243 -2.19685
upperneck 26.3843 1.55526 -0.0306445
head 11.1667 0.477911 0.582485
rclavicle 6.4605e-015 -9.93923e-015
rhumerus -18.5136 -10.4199 -84.8025
rradius 24.2878
rwrist 32.1522
rhand -19.4316 -26.2725
rfingers 7.12502
rthumb 6.88855 -56.1405
lclavicle 6.4605e-015 -9.93923e-015
lhumerus -17.1973 -7.93658 91.2757
lradius 19.6236
lwrist 4.09978
lhand -24.8916 -4.18802
lfingers 7.12502
lthumb 1.6163 25.7856
rfemur -11.475 -3.48297 20.0769
rtibia 20.3298
rfoot -13.9809 -1.97792
rtoes 7.11913
lfemur -10.6003 8.3227 -18.4759
ltibia 17.846
lfoot -11.9062 1.63278
ltoes -7.95198
179
root 0.52076 17.5427 -13.865 5.84588 -0.973803 -1.67979
lowerback -0.685314 -0.264723 0.718936
upperback 4.07683 -0.444353 1.69869
thorax 4.59516 -0.230172 1.33035
lowerneck -15.9229 0.645989 -2.20379
upperneck 26.3738 1.54991 -0.0215091
head 11.1631 0.47607 0.58619
rclavicle 1.19271e-015 -3.57812e-015
rhumerus -18.5022 -10.4165 -84.7998
rradius 24.295
rwrist 32.1483
rhand -19.4245 -26.2742
rfingers 7.12502
rthumb 6.89541 -56.1419
lclavicle 1.19271e-015 -3.57812e-015
lhumerus -17.2027 -7.9632 91.2865
lradius 19.6513
lwrist 4.1384
lhand -24.8781 -4.16543
lfingers 7.12502
lthumb 1.62933 25.8081
rfemur -11.5067 -3.46309 20.0859
rtibia 20.3478
rfoot -13.9767 -2.00377
rtoes 7.10838
lfemur -10.6434 8.30991 -18.4717
ltibia 17.8827
lfoot -11.9089 1.63939
ltoes -7.9528
180
root 0.520815 17.5424 -13.868 5.85893 -0.969622 -1.6862
lowerback -0.651837 -0.264371 0.726413
upperback 4.08117 -0.443778 1.70367
thorax 4.58064 -0.229716 1.33143
lowerneck -15.9346 0.642093 -2.21512
upperneck 26.3685 1.54437 -0.0093094
head 11.1633 0.473989 0.59182
rclavicle -2.5842e-015 1.43125e-014
rhumerus -18.4884 -10.4105 -84.7975
rradius 24.3025
rwrist 32.1412
rhand -19.411 -26.2756
rfingers 7.12502
rthumb 6.90843 -56.1429
lclavicle -2.5842e-015 1.43125e-014
lhumerus -17.2097 -7.99103 91.298
lradius 19.6829
lwrist 4.18021
lhand -24.8709 -4.14619
lfingers 7.12502
lthumb 1.63626 25.8273
rfemur -11.5423 -3.43932 20.0945
rtibia 20.3677
rfoot -13.9728 -2.03014
rtoes 7.09232
lfemur -10.6905 8.30083 -18.4683
ltibia 17.922
lfoot -11.9108 1.64553
ltoes -7.96562
181
root 0.520851 17.5421 -13.8711 5.87366 -0.968164 -1.6924
lowerback -0.618773 -0.263347 0.733006
upperback 4.08493 -0.442255 1.70823
thorax 4.56572 -0.228813 1.33263
lowerneck -15.9484 0.638142 -2.22977
upperneck 26.365 1.53902 0.00561354
head 11.1645 0.47197 0.599059
rclavicle 3.27995e-015 -1.11319e-014
rhumerus -18.4761 -10.4026 -84.7963
rradius 24.3132
rwrist 32.1263
rhand -19.3967 -26.2812
rfingers 7.12502
rthumb 6.92217 -56.148
lclavicle 3.27995e-015 -1.11319e-014
lhumerus -17.2209 -8.02065 91.3096
lradius 19.7192
lwrist 4.22129
lhand -24.863 -4.12635
lfingers 7.12502
lthumb 1.64385 25.8471
rfemur -11.5818 -3.41143 20.1027
rtibia 20.3899
rfoot -13.9688 -2.05762
rtoes 7.0707
lfemur -10.7404 8.29153 -18.4654
ltibia 17.9633
lfoot -11.9123 1.65422
ltoes -7.97318
182
root 0.520944 17.5418 -13.8743 5.88932 -0.968727 -1.6933
lowerback -0.585016 -0.261144 0.735235
upperback 4.08878 -0.438912 1.71044
thorax 4.55048 -0.227119 1.33392
lowerneck -15.9592 0.635018 -2.23947
upperneck 26.3581 1.53438 0.0167415
head 11.1639 0.470352 0.60413
rclavicle 2.48481e-015 -8.34896e-015
rhumerus -18.4659 -10.3956 -84.7955
rradius 24.3285
rwrist 32.1075
rhand -19.384 -26.2848
rfingers 7.12502
rthumb 6.93443 -56.1512
lclavicle 2.48481e-015 -8.34896e-015
lhumerus -17.2337 -8.05427 91.3215
lradius 19.7586
lwrist 4.26207
lhand -24.8536 -4.1097
lfingers 7.12502
lthumb 1.65297 25.8636
rfemur -11.6251 -3.3853 20.1046
rtibia 20.4159
rfoot -13.9653 -2.08163
rtoes 7.04676
lfemur -10.7914 8.28255 -18.4689
ltibia 18.0046
lfoot -11.9141 1.6637
ltoes -7.98356
